{
	"asset":{
		"version":"2.0",
		"generator":"Created using the official Cinema 4D glTF Exporter 1.000x284978"
	},
	"textures":[{
		"sampler":0,
		"source":0
	},
	{
		"sampler":1,
		"source":1
	}],
	"scenes":[{
		"nodes":[0,
		1]
	}],
	"images":[{
		"uri":"data:image/jpeg;base64,"
	},
	{
		"uri":"data:image/jpeg;base64,"
	}],
	"nodes":[{
		"name":"COVER",
		"translation":[0.0,
		0.0,
		0.0],
		"rotation":[0.0,
		0.0,
		0.0,
		-1.0],
		"mesh":0,
		"scale":[1.0,
		1.0,
		1.0]
	},
	{
		"name":"STRANKY",
		"translation":[-0.8995614051818848,
		-4.5102810375396987e-17,
		0.04429452866315842],
		"rotation":[0.0,
		0.0,
		0.0,
		-1.0],
		"mesh":1,
		"scale":[1.0,
		1.0,
		1.0]
	}],
	"samplers":[{
		"magFilter":9729,
		"minFilter":9729,
		"wrapS":10497,
		"wrapT":10497
	},
	{
		"magFilter":9729,
		"minFilter":9729,
		"wrapS":10497,
		"wrapT":10497
	}],
	"meshes":[{
		"name":"COVER",
		"primitives":[{
			"attributes":{
				"POSITION":1,
				"NORMAL":2,
				"TEXCOORD_0":3
			},
			"indices":0,
			"material":0
		}]
	},
	{
		"name":"STRANKY",
		"primitives":[{
			"attributes":{
				"POSITION":5,
				"NORMAL":6,
				"TEXCOORD_0":7
			},
			"indices":4,
			"material":1
		}]
	}],
	"accessors":[{
		"bufferView":0,
		"type":"SCALAR",
		"componentType":5123,
		"count":3768,
		"byteOffset":0,
		"min":[0],
		"max":[898]
	},
	{
		"bufferView":1,
		"type":"VEC3",
		"componentType":5126,
		"count":899,
		"byteOffset":0,
		"min":[-2.0,
		-10.850000381469727,
		-7.75],
		"max":[0.20000000298023225,
		10.850000381469727,
		7.815860748291016]
	},
	{
		"bufferView":1,
		"type":"VEC3",
		"componentType":5126,
		"count":899,
		"byteOffset":12,
		"min":[-0.9999886751174927,
		-1.0,
		-0.9945327043533325],
		"max":[0.9998219013214111,
		1.0,
		0.9941884875297546]
	},
	{
		"bufferView":1,
		"type":"VEC2",
		"componentType":5126,
		"count":899,
		"byteOffset":24,
		"min":[-0.1402665078639984,
		-3.0212392807006838],
		"max":[0.9546499252319336,
		0.9922177791595459]
	},
	{
		"bufferView":2,
		"type":"SCALAR",
		"componentType":5123,
		"count":516,
		"byteOffset":0,
		"min":[0],
		"max":[225]
	},
	{
		"bufferView":3,
		"type":"VEC3",
		"componentType":5126,
		"count":226,
		"byteOffset":0,
		"min":[-0.82623690366745,
		-10.592166900634766,
		-7.448370456695557],
		"max":[0.82623690366745,
		10.592166900634766,
		7.662900447845459]
	},
	{
		"bufferView":3,
		"type":"VEC3",
		"componentType":5126,
		"count":226,
		"byteOffset":12,
		"min":[-1.0,
		-1.0,
		-0.9984169602394104],
		"max":[1.0,
		1.0,
		1.0]
	},
	{
		"bufferView":3,
		"type":"VEC2",
		"componentType":5126,
		"count":226,
		"byteOffset":24,
		"min":[0.007329506799578667,
		0.007329506799578667],
		"max":[0.9364839792251587,
		0.9926704168319702]
	}],
	"bufferViews":[{
		"buffer":0,
		"byteOffset":0,
		"byteLength":7536,
		"target":34963
	},
	{
		"buffer":0,
		"byteOffset":7536,
		"byteLength":28768,
		"target":34962,
		"byteStride":32
	},
	{
		"buffer":1,
		"byteOffset":0,
		"byteLength":1032,
		"target":34963
	},
	{
		"buffer":1,
		"byteOffset":1032,
		"byteLength":7232,
		"target":34962,
		"byteStride":32
	}],
	"buffers":[{
		"uri":"data:application/octet-stream;base64,",
		"byteLength":36304
	},
	{
		"uri":"data:application/octet-stream;base64,",
		"byteLength":8264
	}],
	"materials":[{
		"pbrMetallicRoughness":{
			"baseColorTexture":{
				"index":0
			},
			"baseColorFactor":[0.8,
			0.8,
			0.8,
			1.0],
			"metallicFactor":0.0,
			"roughnessFactor":0.5
		},
		"emissiveFactor":[0.0,
		0.0,
		0.0],
		"alphaMode":"OPAQUE",
		"doubleSided":false,
		"name":"Mat"
	},
	{
		"pbrMetallicRoughness":{
			"baseColorTexture":{
				"index":1
			},
			"baseColorFactor":[0.8,
			0.8,
			0.8,
			1.0],
			"metallicFactor":0.0,
			"roughnessFactor":0.5
		},
		"emissiveFactor":[0.0,
		0.0,
		0.0],
		"alphaMode":"OPAQUE",
		"doubleSided":false,
		"name":"Mat.1"
	}]
}